HIERARCHY
ROOT Hips
{
 OFFSET 0.000000 0.000000 0.000000
 CHANNELS 6 Xposition Yposition Zposition Yrotation Xrotation Zrotation
 JOINT Chest
 {
  OFFSET 0.000000 9.585900 0.002600
  CHANNELS 3 Yrotation Xrotation Zrotation
  JOINT Chest2
  {
   OFFSET 0.000000 9.601200 -0.005300
   CHANNELS 3 Yrotation Xrotation Zrotation
   JOINT Chest3
   {
    OFFSET 0.000000 9.561800 0.000000
    CHANNELS 3 Yrotation Xrotation Zrotation
    JOINT Chest4
    {
     OFFSET 0.000000 9.552100 0.000000
     CHANNELS 3 Yrotation Xrotation Zrotation
     JOINT Neck
     {
      OFFSET 0.000000 14.453000 0.000000
      CHANNELS 3 Yrotation Xrotation Zrotation
      JOINT Head
      {
       OFFSET 0.000000 8.936500 -0.011300
       CHANNELS 3 Yrotation Xrotation Zrotation
       End Site
       {
        OFFSET 0.000000 17.073600 -0.006000
       }
      }
     }
     JOINT RightCollar
     {
      OFFSET -2.921100 9.558500 0.000000
      CHANNELS 3 Yrotation Xrotation Zrotation
      JOINT RightShoulder
      {
       OFFSET -13.519700 0.000000 0.000000
       CHANNELS 3 Yrotation Xrotation Zrotation
       JOINT RightElbow
       {
        OFFSET 0.000000 -29.696600 0.000000
        CHANNELS 3 Yrotation Xrotation Zrotation
        JOINT RightWrist
        {
         OFFSET 0.000000 -24.004700 0.000000
         CHANNELS 3 Yrotation Xrotation Zrotation
         End Site
         {
          OFFSET 0.000000 -17.728500 0.000000
         }
        }
       }
      }
     }
     JOINT LeftCollar
     {
      OFFSET 2.921100 9.558500 0.000000
      CHANNELS 3 Yrotation Xrotation Zrotation
      JOINT LeftShoulder
      {
       OFFSET 13.519700 0.000000 0.000000
       CHANNELS 3 Yrotation Xrotation Zrotation
       JOINT LeftElbow
       {
        OFFSET 0.000000 -29.696600 0.000000
        CHANNELS 3 Yrotation Xrotation Zrotation
        JOINT LeftWrist
        {
         OFFSET 0.000000 -24.004700 0.000000
         CHANNELS 3 Yrotation Xrotation Zrotation
         End Site
         {
          OFFSET 0.000000 -17.728500 0.000000
         }
        }
       }
      }
     }
    }
   }
  }
 }
 JOINT RightHip
 {
  OFFSET -7.771700 -0.012900 -0.001300
  CHANNELS 3 Yrotation Xrotation Zrotation
  JOINT RightKnee
  {
   OFFSET 0.000000 -40.869800 0.001200
   CHANNELS 3 Yrotation Xrotation Zrotation
   JOINT RightAnkle
   {
    OFFSET 0.000000 -39.717900 0.002100
    CHANNELS 3 Yrotation Xrotation Zrotation
    JOINT RightToe
    {
     OFFSET 0.000000 -4.965400 11.033500
     CHANNELS 3 Yrotation Xrotation Zrotation
     End Site
     {
      OFFSET 0.000000 -1.423100 5.872300
     }
    }
   }
  }
 }
 JOINT LeftHip
 {
  OFFSET 7.771700 -0.012900 -0.001300
  CHANNELS 3 Yrotation Xrotation Zrotation
  JOINT LeftKnee
  {
   OFFSET 0.000000 -40.869800 0.001200
   CHANNELS 3 Yrotation Xrotation Zrotation
   JOINT LeftAnkle
   {
    OFFSET 0.000000 -39.717900 0.002100
    CHANNELS 3 Yrotation Xrotation Zrotation
    JOINT LeftToe
    {
     OFFSET 0.000000 -4.965400 11.033500
     CHANNELS 3 Yrotation Xrotation Zrotation
     End Site
     {
      OFFSET 0.000000 -1.423100 5.872300
     }
    }
   }
  }
 }
}
MOTION
Frames: 15
Frame Time: 0.008333
-27.759843 56.117642 35.962820 -168.787432 -27.908110 -11.428283 -0.687602 16.868836 7.971484 -1.070555 9.402210 2.215638 -1.284791 11.758554 2.751041 -1.083227 9.377258 2.229169 0.560579 19.190915 -1.321235 0.891146 -5.488174 -1.520681 8.251268 -3.699195 -8.270305 6.200649 -47.308773 -17.519978 94.900672 -58.036439 -89.717058 8.521876 -1.859648 -39.937788 -12.432152 -0.317366 -2.034844 -8.917953 -16.983886 1.910784 -71.557107 -41.494282 68.646985 0.139832 -7.342041 0.482590 -24.543908 -30.653601 4.525936 108.259602 88.858209 105.781309 1.141258 -24.078196 -0.446693 -0.127328 0.529896 -0.065442 -17.599641 -48.339208 4.426503 165.545540 71.917549 165.503816 2.513440 -20.729052 -1.886287 -2.294122 -5.589814 -0.997977
-27.758701 56.115568 35.956482 -168.788553 -27.892368 -11.426731 -0.679859 16.868083 7.969094 -1.061935 9.414334 2.211973 -1.284069 11.752196 2.753592 -1.078827 9.379591 2.226994 0.563168 19.259514 -1.318618 0.884095 -5.527358 -1.499888 8.260357 -3.735916 -8.307302 6.417621 -47.394815 -17.667195 96.087555 -59.045055 -90.873580 8.427514 -2.178313 -39.689760 -12.436627 -0.311697 -2.034002 -8.937149 -17.005065 1.930590 -71.525155 -41.497271 68.652204 0.132256 -7.359081 0.455679 -24.552872 -30.670241 4.540273 108.824441 88.855898 106.339726 1.137922 -24.068831 -0.443423 -0.126610 0.534152 -0.063369 -17.589159 -48.349859 4.432654 165.565346 71.910946 165.526034 2.498521 -20.752489 -1.877367 -2.287125 -5.580364 -0.994523
-27.754116 56.113868 35.949877 -168.802057 -27.875014 -11.436280 -0.656603 16.864275 7.984715 -1.063652 9.407372 2.213805 -1.276140 11.765009 2.748848 -1.041874 9.441368 2.196647 0.540111 19.208876 -1.273285 0.875091 -5.464320 -1.484054 8.226729 -3.831299 -8.293269 6.662045 -47.453740 -17.839276 97.497698 -60.358148 -92.225770 8.310868 -2.523472 -39.315263 -12.476914 -0.353718 -1.986112 -8.948736 -17.010781 1.939801 -71.495633 -41.499659 68.689699 0.115737 -7.389795 0.417502 -24.558526 -30.680669 4.572235 109.095869 88.857996 106.613060 1.134760 -24.061660 -0.444283 -0.127523 0.541615 -0.062923 -17.587671 -48.361553 4.467711 165.566730 71.895524 165.527506 2.490977 -20.770243 -1.864013 -2.297548 -5.578739 -0.998122
-27.753262 56.110755 35.944690 -168.797385 -27.843695 -11.427418 -0.627521 16.895303 7.970861 -1.069961 9.377756 2.220793 -1.267078 11.769121 2.747399 -1.026807 9.456443 2.192493 0.519128 19.185466 -1.245728 0.835286 -5.338257 -1.463218 8.201488 -3.896183 -8.289734 6.875409 -47.490478 -17.980073 99.179721 -61.965933 -93.800164 8.160578 -2.927830 -38.803112 -12.509312 -0.370193 -1.958357 -8.945218 -17.015388 1.948959 -71.510252 -41.514306 68.725901 0.113874 -7.390958 0.403680 -24.570913 -30.714026 4.576512 109.634418 88.854403 107.151812 1.132609 -24.063189 -0.442180 -0.128070 0.550063 -0.064051 -17.588086 -48.392538 4.466247 165.568384 71.888337 165.530947 2.479609 -20.781459 -1.861338 -2.293920 -5.575361 -0.994867
-27.751247 56.109092 35.936999 -168.799960 -27.826513 -11.423631 -0.619745 16.893020 7.967653 -1.053964 9.398759 2.215474 -1.238043 11.803687 2.739856 -1.036271 9.428204 2.208111 0.497155 19.206100 -1.235778 0.795368 -5.301930 -1.447819 8.207583 -3.954390 -8.331752 6.981783 -47.507292 -18.022586 101.216620 -63.835776 -95.661717 7.981316 -3.386011 -38.151099 -12.519959 -0.344465 -1.960983 -8.949722 -17.038617 1.974418 -71.419972 -41.561805 68.778966 0.078109 -7.463188 0.306048 -24.577992 -30.728463 4.587656 110.070631 88.854869 107.584529 1.131743 -24.067135 -0.441993 -0.127337 0.570184 -0.061409 -17.584184 -48.407673 4.472539 165.577438 71.877642 165.538314 2.475048 -20.788903 -1.851188 -2.301313 -5.576503 -0.998141
-27.750916 56.107897 35.928083 -168.797330 -27.814695 -11.413675 -0.619002 16.896117 7.955749 -1.022143 9.454241 2.208048 -1.240164 11.782373 2.747224 -1.045415 9.399588 2.218606 0.478978 19.245490 -1.239922 0.784669 -5.326122 -1.438168 8.211981 -3.981691 -8.349007 7.102428 -47.510953 -18.078548 103.726515 -65.907709 -97.928156 7.779715 -3.867020 -37.373082 -12.520172 -0.331683 -1.964153 -8.955099 -17.052715 1.988849 -71.363087 -41.595588 68.802927 0.037750 -7.508880 0.248127 -24.580228 -30.739347 4.583560 110.501900 88.855480 108.013880 1.127052 -24.077467 -0.441466 -0.126240 0.578170 -0.059638 -17.563040 -48.409471 4.465680 165.613874 71.877234 165.574425 2.450378 -20.824768 -1.839191 -2.286864 -5.555616 -0.991641
-27.750165 56.106191 35.920250 -168.792452 -27.791973 -11.407149 -0.599352 16.935377 7.950108 -1.034107 9.407704 2.213032 -1.230410 11.802575 2.743330 -1.044423 9.383977 2.222959 0.451713 19.323033 -1.261887 0.756980 -5.337074 -1.426518 8.212077 -4.007474 -8.362908 7.219329 -47.489487 -18.127495 106.849609 -68.113154 -100.758675 7.556789 -4.350675 -36.495787 -12.518106 -0.319782 -1.967158 -8.937484 -17.036516 1.984869 -71.368962 -41.621026 68.870955 0.024241 -7.545985 0.204335 -24.588696 -30.758581 4.585924 111.079719 88.862970 108.591807 1.136262 -24.089406 -0.441313 -0.127372 0.586205 -0.058655 -17.567207 -48.430151 4.466293 165.643031 71.869843 165.596584 2.457173 -20.831725 -1.829717 -2.294718 -5.559709 -0.995286
-27.750696 56.104638 35.912259 -168.798738 -27.771275 -11.390040 -0.595866 16.936353 7.935653 -1.031768 9.401530 2.213388 -1.223042 11.819273 2.738468 -1.025069 9.425807 2.209797 0.420101 19.313558 -1.257043 0.731164 -5.313812 -1.427242 8.194734 -4.089550 -8.359710 7.360365 -47.430834 -18.193264 110.780639 -70.383054 -104.368579 7.316280 -4.824358 -35.557485 -12.534267 -0.371960 -1.931187 -8.914982 -17.001149 1.968480 -71.379852 -41.643594 68.950093 0.036407 -7.567835 0.178014 -24.590375 -30.780631 4.582788 111.571963 88.863602 109.080613 1.141057 -24.104858 -0.442911 -0.128785 0.594659 -0.058127 -17.545407 -48.447903 4.459435 165.683915 71.866867 165.628876 2.455382 -20.847432 -1.812234 -2.298694 -5.557569 -0.996180
-27.752201 56.102504 35.905602 -168.805557 -27.741149 -11.367493 -0.599662 16.912950 7.915722 -1.024787 9.426210 2.210096 -1.219679 11.816091 2.734936 -1.020773 9.425973 2.207696 0.402388 19.335327 -1.263342 0.713912 -5.289456 -1.429986 8.189242 -4.125626 -8.357646 7.534903 -47.332025 -18.281549 115.827718 -72.630287 -109.064695 7.064064 -5.263624 -34.602707 -12.533854 -0.380068 -1.917575 -8.900187 -16.973539 1.956009 -71.378871 -41.666995 69.023555 0.028908 -7.601474 0.136054 -24.590730 -30.813148 4.577542 111.967203 88.862301 109.475110 1.136452 -24.129041 -0.444177 -0.122212 0.608987 -0.056355 -17.524021 -48.475444 4.444478 165.738371 71.868254 165.677621 2.461283 -20.866487 -1.801939 -2.299615 -5.547504 -0.995275
-27.754040 56.098241 35.903492 -168.821063 -27.681435 -11.335669 -0.598715 16.878824 7.889903 -1.017030 9.454993 2.201182 -1.217062 11.787166 2.739548 -1.016557 9.425366 2.205356 0.386240 19.357500 -1.270441 0.698426 -5.264521 -1.433924 8.180013 -4.158429 -8.351620 7.722364 -47.207318 -18.370717 122.380259 -74.741487 -115.219141 6.805107 -5.650432 -33.662259 -12.524984 -0.371460 -1.913168 -8.892331 -16.956809 1.955052 -71.415479 -41.680561 69.094274 0.041142 -7.619314 0.117887 -24.595866 -30.883411 4.582239 112.558229 88.859378 110.064595 1.136505 -24.145249 -0.445978 -0.122699 0.620476 -0.055785 -17.518404 -48.529814 4.457319 165.808143 71.877335 165.731243 2.431940 -20.906776 -1.785572 -2.279553 -5.510780 -0.987307
-27.754372 56.097978 35.895475 -168.839820 -27.662590 -11.319812 -0.581373 16.901255 7.879226 -1.014495 9.424899 2.204298 -1.212771 11.801157 2.734320 -1.012876 9.424443 2.203833 0.372287 19.376276 -1.280701 0.685918 -5.243308 -1.441789 8.167752 -4.181806 -8.347389 7.883102 -47.082365 -18.426166 130.736274 -76.574508 -123.115518 6.525857 -5.994278 -32.749631 -12.505629 -0.336214 -1.932284 -8.906774 -16.974645 1.985569 -71.417319 -41.697054 69.151474 0.053070 -7.650249 0.084529 -24.590298 -30.903208 4.584405 112.854593 88.859700 110.360698 1.141976 -24.156872 -0.450713 -0.123812 0.624941 -0.055908 -17.511117 -48.542080 4.480683 165.905970 71.877271 165.796530 2.446349 -20.925824 -1.754261 -2.296580 -5.508101 -0.994678
-27.754740 56.097084 35.889623 -168.849510 -27.628676 -11.306076 -0.579667 16.881377 7.868752 -1.012828 9.424405 2.203659 -1.212684 11.816551 2.730446 -1.010485 9.423752 2.202908 0.362547 19.390390 -1.294542 0.678772 -5.227286 -1.454342 8.158725 -4.189980 -8.344997 7.995079 -46.972545 -18.436638 140.871766 -77.974974 -132.729281 6.207910 -6.306997 -31.867612 -12.489158 -0.320838 -1.948497 -8.891642 -16.959722 2.000529 -71.391647 -41.772980 69.238658 0.004995 -7.701159 0.005564 -24.597408 -30.937079 4.585128 113.107646 88.855965 110.619695 1.152034 -24.167284 -0.461233 -0.123661 0.627953 -0.055818 -17.517867 -48.568352 4.505527 165.976792 71.879185 165.843911 2.439821 -20.948865 -1.735228 -2.294701 -5.497663 -0.992813
-27.753759 56.097419 35.882918 -168.864048 -27.602445 -11.298930 -0.569379 16.885213 7.864800 -1.014918 9.456267 2.197893 -1.206275 11.776840 2.737187 -1.012523 9.431379 2.199821 0.356683 19.399739 -1.308772 0.680108 -5.227356 -1.462266 8.156883 -4.182653 -8.339367 8.063922 -46.874533 -18.420019 152.255808 -78.839838 -143.544655 5.870659 -6.593465 -31.008656 -12.470112 -0.314477 -1.962408 -8.853474 -16.921642 2.004358 -71.441491 -41.820597 69.342139 -0.005990 -7.729169 -0.035095 -24.598510 -30.957937 4.597564 113.147254 88.854364 110.662489 1.152750 -24.179709 -0.467926 -0.123714 0.632977 -0.053950 -17.523824 -48.587103 4.535731 166.036513 71.876692 165.882733 2.442763 -20.963185 -1.717754 -2.301626 -5.497954 -0.994156
-27.752786 56.097526 35.877607 -168.871817 -27.567725 -11.292144 -0.569949 16.882911 7.859396 -1.016175 9.454815 2.194467 -1.199672 11.754013 2.741910 -1.018100 9.446946 2.194972 0.353479 19.404679 -1.318236 0.687361 -5.243205 -1.459978 8.155106 -4.152649 -8.326149 8.106313 -46.779778 -18.399601 163.801564 -79.151974 -154.497535 5.547933 -6.851247 -30.159731 -12.453817 -0.308652 -1.973272 -8.816460 -16.886192 2.004993 -71.470697 -41.868303 69.433587 -0.017759 -7.757061 -0.077956 -24.615159 -30.987876 4.614435 113.220820 88.856819 110.731725 1.154070 -24.186930 -0.471526 -0.123135 0.632117 -0.054867 -17.533644 -48.617863 4.553703 166.062011 71.872531 165.899248 2.445578 -20.965980 -1.709857 -2.304187 -5.503405 -0.997700
-27.752468 56.097206 35.873758 -168.875417 -27.525225 -11.279863 -0.580047 16.873819 7.843291 -1.015221 9.451697 2.192679 -1.199954 11.756750 2.740377 -1.015103 9.445346 2.192975 0.361245 19.384289 -1.314529 0.674476 -5.209174 -1.480315 8.152511 -4.118757 -8.300882 8.132576 -46.682220 -18.385917 174.152360 -78.977627 -164.257896 5.249544 -7.062225 -29.300551 -12.441807 -0.326246 -1.965891 -8.766096 -16.832046 1.986786 -71.501521 -41.918187 69.528224 -0.032382 -7.786595 -0.118559 -24.630824 -31.029257 4.621848 113.358772 88.848574 110.871395 1.158319 -24.192933 -0.475357 -0.122374 0.632116 -0.057962 -17.546957 -48.650444 4.577408 166.118559 71.879032 165.942551 2.422076 -20.993488 -1.703800 -2.284356 -5.484785 -0.987689
